<?xml version="1.0" encoding="UTF-8" standalone="no"?>

<!-- Created with Inkscape (http://www.inkscape.org/) -->
<svg width="32" version="1.1" xmlns="http://www.w3.org/2000/svg" height="32" xmlns:xlink="http://www.w3.org/1999/xlink" xmlns:inkscape="http://www.inkscape.org/namespaces/inkscape">
 <defs id="defs5455">
  <linearGradient inkscape:collect="always" xlink:href="#linearGradient4303" id="linearGradient4346" y1="542.79797" y2="538.79797" x2="0" gradientUnits="userSpaceOnUse" gradientTransform="matrix(1 0 0 1 -0.00007 2)"/>
  <linearGradient inkscape:collect="always" id="linearGradient4303">
   <stop style="stop-color:#c6cdd1" id="stop4305"/>
   <stop offset="1" style="stop-color:#e0e5e7" id="stop4307"/>
  </linearGradient>
  <linearGradient inkscape:collect="always" xlink:href="#linearGradient4293" id="linearGradient4173" y1="519.79797" x1="393.57144" y2="536.79797" x2="410.57144" gradientUnits="userSpaceOnUse"/>
  <linearGradient inkscape:collect="always" id="linearGradient4293">
   <stop id="stop4295"/>
   <stop offset="1" style="stop-opacity:0" id="stop4297"/>
  </linearGradient>
  <linearGradient inkscape:collect="always" xlink:href="#linearGradient4159" id="linearGradient4338" y1="538.79797" y2="519.79797" x2="0" gradientUnits="userSpaceOnUse" gradientTransform="matrix(1 0 0 1.2105271 -3.00004 -111.43158)"/>
  <linearGradient inkscape:collect="always" id="linearGradient4159">
   <stop style="stop-color:#2a2c2f" id="stop4161"/>
   <stop offset="1" style="stop-color:#424649" id="stop4163"/>
  </linearGradient>
  <linearGradient inkscape:collect="always" xlink:href="#linearGradient4303" id="linearGradient4270" y1="524.79797" y2="522.79797" x2="0" gradientUnits="userSpaceOnUse" gradientTransform="matrix(1 0 0 -0.99999997 0 -2.999886)"/>
  <linearGradient inkscape:collect="always" xlink:href="#linearGradient4303" id="linearGradient4274" y1="524.79797" y2="522.79797" gradientUnits="userSpaceOnUse" x2="0" gradientTransform="matrix(1 0 0 -1 0 -2.999888)"/>
  <linearGradient inkscape:collect="always" id="linearGradient4172">
   <stop style="stop-color:#39a1d8" id="stop4174"/>
   <stop offset="1" style="stop-color:#4db4e8" id="stop4176"/>
  </linearGradient>
  <linearGradient inkscape:collect="always" xlink:href="#linearGradient4410" id="linearGradient4373" y1="5.00016" x1="9" y2="19" x2="23.00001" gradientUnits="userSpaceOnUse" gradientTransform="matrix(1 0 0 1 0.00001 3)"/>
  <linearGradient inkscape:collect="always" id="linearGradient4410">
   <stop style="stop-color:#383e51" id="stop4412"/>
   <stop offset="1" style="stop-color:#655c6f;stop-opacity:0" id="stop4414"/>
  </linearGradient>
  <linearGradient inkscape:collect="always" xlink:href="#linearGradient4172" id="linearGradient4351" y1="536.79797" y2="518.79797" x2="0" gradientUnits="userSpaceOnUse"/>
 </defs>
 <metadata id="metadata5458"/>
 <g inkscape:label="Capa 1" inkscape:groupmode="layer" id="layer1" transform="matrix(1 0 0 1 -384.57143 -515.798)">
  <rect width="30" x="385.57144" y="518.79797" rx="0" height="18" style="fill:url(#linearGradient4351)" id="rect4343"/>
  <rect width="6" x="397.57144" y="540.79797" height="4" style="fill:url(#linearGradient4346)" id="rect4321"/>
  <rect width="12" x="394.57144" y="544.79797" height="1" style="fill:#99a1a7" id="rect4323"/>
  <path inkscape:connector-curvature="0" style="fill:url(#linearGradient4173);opacity:0.2;fill-rule:evenodd" id="path4165" d="m 385.57143,536.79801 4,4 27,0 0,-21 -1,-1 0,18 z"/>
  <path inkscape:connector-curvature="0" style="fill:url(#linearGradient4338)" id="rect4319" d="m 384.57143,517.79801 0,23 32,0 0,-23 -32,0 z m 1,1 30,0 0,18 -30,0 0,-18 z"/>
  <flowRoot line-height="125%" style="font-size:10;font-family:sans-serif" id="flowRoot4170" transform="matrix(1 0 0 1 389.57142 520.79806)">
   <flowRegion id="flowRegion4172">
    <rect width="27" x="22" y="3" height="15" id="rect4174"/>
   </flowRegion>
   <flowPara id="flowPara4176">Plasm</flowPara>
  </flowRoot>
  <rect width="14" x="393.57144" y="-527.7981" height="3" style="fill:url(#linearGradient4270)" id="rect4258" transform="matrix(1 0 0 -1 0 0)"/>
  <path style="fill:url(#linearGradient4373);fill-rule:evenodd" id="path4361" d="M 23 9 L 23 12 L 9 12 L 13 16 L 9 16 L 18 25 L 32 25 L 32 21 L 32 18 L 23 9 z " transform="matrix(1 0 0 1 384.57143 515.798)"/>
  <rect width="14" x="393.57144" y="-531.79797" height="3" style="fill:url(#linearGradient4274)" id="rect4272" transform="matrix(1 0 0 -1 0 0)"/>
  <circle cx="395.07144" cy="526.2981" style="fill:#4d4d4d" id="path4278" r="0.5"/>
  <circle cx="395.07144" cy="530.2981" style="fill:#4d4d4d" id="path4278-9" r="0.5"/>
  <circle cx="397.07144" cy="530.2981" style="fill:#4d4d4d" id="path4278-0" r="0.5"/>
  <circle cx="399.07144" cy="530.2981" style="fill:#4d4d4d" id="path4278-5" r="0.5"/>
  <path inkscape:connector-curvature="0" style="fill:url(#linearGradient4338)" id="path4424" d="m 384.57143,517.79801 0,23 32,0 0,-23 -32,0 z m 1,1 30,0 0,18 -30,0 0,-18 z"/>
 </g>
</svg>
