<?xml version="1.0" encoding="UTF-8" standalone="no"?>
<!-- Created with Inkscape (http://www.inkscape.org/) -->

<svg
   xmlns:dc="http://purl.org/dc/elements/1.1/"
   xmlns:cc="http://creativecommons.org/ns#"
   xmlns:rdf="http://www.w3.org/1999/02/22-rdf-syntax-ns#"
   xmlns:svg="http://www.w3.org/2000/svg"
   xmlns="http://www.w3.org/2000/svg"
   xmlns:xlink="http://www.w3.org/1999/xlink"
   xmlns:sodipodi="http://sodipodi.sourceforge.net/DTD/sodipodi-0.dtd"
   xmlns:inkscape="http://www.inkscape.org/namespaces/inkscape"
   width="80mm"
   height="45mm"
   viewBox="0 0 80 45"
   version="1.1"
   id="svg8"
   inkscape:version="0.92.2 5c3e80d, 2017-08-06"
   sodipodi:docname="broken-page.svg">
  <defs
     id="defs2">
    <linearGradient
       id="linearGradient1187"
       inkscape:collect="always">
      <stop
         id="stop1183"
         offset="0"
         style="stop-color:#969696;stop-opacity:1" />
      <stop
         id="stop1185"
         offset="1"
         style="stop-color:#969696;stop-opacity:0" />
    </linearGradient>
    <linearGradient
       id="linearGradient1181"
       inkscape:collect="always">
      <stop
         id="stop1177"
         offset="0"
         style="stop-color:#43baea;stop-opacity:1;" />
      <stop
         id="stop1179"
         offset="1"
         style="stop-color:#979797;stop-opacity:0" />
    </linearGradient>
    <filter
       inkscape:collect="always"
       style="color-interpolation-filters:sRGB"
       id="filter990"
       x="-0.032482906"
       width="1.0649658"
       y="-0.091901257"
       height="1.1838025">
      <feGaussianBlur
         inkscape:collect="always"
         stdDeviation="0.41565352"
         id="feGaussianBlur992" />
    </filter>
    <filter
       inkscape:collect="always"
       style="color-interpolation-filters:sRGB"
       id="filter1048"
       x="-0.029793768"
       width="1.0595875"
       y="-0.045472136"
       height="1.0909443">
      <feGaussianBlur
         inkscape:collect="always"
         stdDeviation="0.32772389"
         id="feGaussianBlur1050" />
    </filter>
    <radialGradient
       inkscape:collect="always"
       xlink:href="#linearGradient1181"
       id="radialGradient1080"
       gradientUnits="userSpaceOnUse"
       gradientTransform="matrix(1.4094847,9.7292582e-4,-0.00118225,1.712714,7.4483806,-188.73896)"
       cx="21.976309"
       cy="263.35797"
       fx="21.976309"
       fy="263.35797"
       r="15.668174" />
    <radialGradient
       inkscape:collect="always"
       xlink:href="#linearGradient1187"
       id="radialGradient1082"
       gradientUnits="userSpaceOnUse"
       gradientTransform="matrix(1.4094847,9.7292582e-4,-0.00118225,1.712714,7.4483806,-188.73896)"
       cx="21.976309"
       cy="263.35797"
       fx="21.976309"
       fy="263.35797"
       r="15.668174" />
  </defs>
  <sodipodi:namedview
     id="base"
     pagecolor="#ffffff"
     bordercolor="#666666"
     borderopacity="1.0"
     inkscape:pageopacity="0.0"
     inkscape:pageshadow="2"
     inkscape:zoom="1.4"
     inkscape:cx="74.229473"
     inkscape:cy="120.94099"
     inkscape:document-units="mm"
     inkscape:current-layer="layer1"
     showgrid="false"
     inkscape:window-width="1280"
     inkscape:window-height="776"
     inkscape:window-x="0"
     inkscape:window-y="24"
     inkscape:window-maximized="1" />
  <metadata
     id="metadata5">
    <rdf:RDF>
      <cc:Work
         rdf:about="">
        <dc:format>image/svg+xml</dc:format>
        <dc:type
           rdf:resource="http://purl.org/dc/dcmitype/StillImage" />
        <dc:title></dc:title>
      </cc:Work>
    </rdf:RDF>
  </metadata>
  <g
     inkscape:label="Layer 1"
     inkscape:groupmode="layer"
     id="layer1"
     transform="translate(0,-252)">
    <rect
       style="opacity:0.83200001;fill:#eaeaea;fill-opacity:1;stroke:none;stroke-width:0.35086811;stroke-miterlimit:4;stroke-dasharray:none;stroke-opacity:1"
       id="rect826"
       width="80"
       height="45"
       x="0"
       y="252" />
    <path
       inkscape:connector-curvature="0"
       style="opacity:1;fill:#5d5f62;fill-opacity:1;stroke:none;stroke-width:0.35906833;stroke-miterlimit:4;stroke-dasharray:none;stroke-opacity:1"
       d="m 38.045236,258.83171 a 15.668174,15.668174 0 0 0 -2.592088,0.21962 l 4.752681,5.67562 -3.29334,3.57653 6.201687,5.76657 -5.807395,5.01727 4.563544,3.24993 -7.876521,7.27914 a 15.668174,15.668174 0 0 0 4.051432,0.5519 A 15.668174,15.668174 0 0 0 53.71353,274.5 15.668174,15.668174 0 0 0 38.045236,258.83171 Z m -5.246708,0.9219 A 15.668174,15.668174 0 0 0 22.377458,274.5 a 15.668174,15.668174 0 0 0 8.902816,14.11077 l 6.729823,-6.11746 -4.441074,-3.21272 5.953125,-5.1971 -6.047692,-5.4808 3.49591,-3.87419 z"
       id="circle1062" />
    <path
       inkscape:connector-curvature="0"
       style="opacity:1;fill:url(#radialGradient1080);fill-opacity:1;stroke:none;stroke-width:0.35906833;stroke-miterlimit:4;stroke-dasharray:none;stroke-opacity:1"
       d="m 38.045236,258.83171 a 15.668174,15.668174 0 0 0 -2.592088,0.21962 l 4.752681,5.67562 -3.29334,3.57653 6.201687,5.76657 -5.807395,5.01727 4.563544,3.24993 -7.876521,7.27914 a 15.668174,15.668174 0 0 0 4.051432,0.5519 A 15.668174,15.668174 0 0 0 53.71353,274.5 15.668174,15.668174 0 0 0 38.045236,258.83171 Z m -5.246708,0.9219 A 15.668174,15.668174 0 0 0 22.377458,274.5 a 15.668174,15.668174 0 0 0 8.902816,14.11077 l 6.729823,-6.11746 -4.441074,-3.21272 5.953125,-5.1971 -6.047692,-5.4808 3.49591,-3.87419 z"
       id="circle1064" />
    <path
       inkscape:connector-curvature="0"
       style="opacity:1;fill:url(#radialGradient1082);fill-opacity:1;stroke:none;stroke-width:0.35906833;stroke-miterlimit:4;stroke-dasharray:none;stroke-opacity:1;fill-rule:nonzero"
       d="m 38.045236,258.83171 a 15.668174,15.668174 0 0 0 -2.592088,0.21962 l 4.752681,5.67562 -3.29334,3.57653 6.201687,5.76657 -5.807395,5.01727 4.563544,3.24993 -7.876521,7.27914 a 15.668174,15.668174 0 0 0 4.051432,0.5519 A 15.668174,15.668174 0 0 0 53.71353,274.5 15.668174,15.668174 0 0 0 38.045236,258.83171 Z m -5.246708,0.9219 A 15.668174,15.668174 0 0 0 22.377458,274.5 a 15.668174,15.668174 0 0 0 8.902816,14.11077 l 6.729823,-6.11746 -4.441074,-3.21272 5.953125,-5.1971 -6.047692,-5.4808 3.49591,-3.87419 z"
       id="circle1066" />
    <path
       inkscape:connector-curvature="0"
       style="fill:#000000;fill-opacity:1;stroke:none;stroke-width:0.99999994px;stroke-linecap:butt;stroke-linejoin:miter;stroke-opacity:1;filter:url(#filter990)"
       d="m 171.52148,-134.68359 c -3.8385,0.0198 -7.89415,0.18885 -12.19336,0.52734 l 8.2129,36.607422 c 9.41065,-6.185242 16.89609,-9.180342 23.32031,-10.171872 l -2.60352,-1.88282 21.60938,-18.86523 c -10.10523,-3.75337 -22.30672,-6.29753 -38.34571,-6.21484 z m 47.37305,10.08593 -16.50976,14.26368 7.42382,5.2871 c 15.20973,6.160369 29.54688,18.453362 65.58985,6.070318 -24.01881,-1.644768 -36.18453,-15.648968 -56.50391,-25.621098 z"
       transform="matrix(0.26458333,0,0,0.26458333,-16.240855,308.27985)"
       id="path1070" />
    <path
       inkscape:connector-curvature="0"
       style="fill:#b8b9b9;fill-opacity:1;stroke:none;stroke-width:0.26458332px;stroke-linecap:butt;stroke-linejoin:miter;stroke-opacity:1"
       d="m 29.046821,272.55025 c -1.015606,0.005 -2.08918,0.05 -3.226679,0.13953 l 2.173513,9.68571 c 2.475158,-1.62682 4.446672,-2.41959 6.139674,-2.68666 l -0.564306,-0.40824 5.764506,-5.03225 c -2.701096,-1.02231 -5.967616,-1.72036 -10.286708,-1.69809 z m 12.661241,2.7342 -4.401281,3.80287 1.77922,1.2671 c 4.058227,1.61714 7.836577,4.94421 17.444413,1.64331 -6.303671,-0.43166 -9.523793,-4.07933 -14.822352,-6.71328 z"
       id="path1072" />
    <path
       inkscape:connector-curvature="0"
       style="opacity:0.656;fill:#00000b;fill-opacity:1;stroke:none;stroke-width:0.99999994px;stroke-linecap:butt;stroke-linejoin:miter;stroke-opacity:1;filter:url(#filter1048)"
       d="m 190.76172,-162.56445 c -7.98966,-0.0749 -16.27657,1.65778 -25.00586,6.08789 -7.99066,18.78625 -11.03964,38.13352 1.78516,59.285154 12.36698,-16.644274 26.38978,-27.300544 41.65039,-33.472654 l -21.29102,-19.29688 10.77539,-11.9414 c -2.6095,-0.39534 -5.24377,-0.63708 -7.91406,-0.66211 z m 17.95703,2.97461 -7.82422,8.49804 18.33985,17.05274 c 12.47567,-3.40524 25.6683,-4.21639 39.3789,-3.15235 -16.79906,-6.44482 -32.88909,-17.21065 -49.89453,-22.39843 z"
       transform="matrix(0.26458333,0,0,0.26458333,-16.240855,308.27985)"
       id="path1074" />
    <path
       inkscape:connector-curvature="0"
       style="fill:#efefef;fill-opacity:1;stroke:none;stroke-width:0.26458332px;stroke-linecap:butt;stroke-linejoin:miter;stroke-opacity:1"
       d="m 34.136949,265.07887 c -2.113931,-0.0198 -4.306512,0.43862 -6.616134,1.61075 -2.114195,4.97053 -2.920389,10.0895 0.47284,15.68587 3.251086,-4.37552 6.934379,-7.18603 10.941968,-8.82375 l -5.461167,-4.94905 2.991032,-3.31453 c -0.766664,-0.12752 -1.54215,-0.20192 -2.328539,-0.20929 z m 4.958868,0.8537 -2.183328,2.37091 4.673616,4.34547 c 3.325643,-0.92045 6.844805,-1.14072 10.503235,-0.85679 -4.37616,-1.67888 -8.57087,-4.4639 -12.993523,-5.85959 z"
       id="path1076" />
  </g>
</svg>
