<?xml version="1.0" encoding="UTF-8"?>
<svg version="1.1" viewBox="0 0 800 450" xmlns="http://www.w3.org/2000/svg" xmlns:xlink="http://www.w3.org/1999/xlink">
 <metadata id="license" xmlns:rdf="http://www.w3.org/1999/02/22-rdf-syntax-ns#" xmlns:dc="http://purl.org/dc/elements/1.1/" xmlns:cc="http://creativecommons.org/ns#">
  <rdf:RDF>
   <cc:Work rdf:about="broken-page.svg">
    <dc:description>Broken page</dc:description>
    <dc:type rdf:resource="http://purl.org/dc/dcmitype/StillImage"/>
    <dc:format>image/svg+xml</dc:format>
    <dc:date>2018-01-10</dc:date>
    <dc:creator>Konstantin Savun</dc:creator>
    <cc:license rdf:resource="https://creativecommons.org/licenses/by-sa/4.0/legalcode"/>
    <cc:attributionName rdf:resource="Konstantin Savun"/>
    <cc:attributionURL rdf:resource="diablopc@linuxforum.tech"/>
   </cc:Work>
  </rdf:RDF>
</metadata>
 <defs>
  <radialGradient id="b" gradientUnits="userSpaceOnUse" cy="263.36" cx="21.976" gradientTransform="matrix(1.4095 .00097293 -.0011822 1.7127 7.4484 -440.74)" r="15.668">
   <stop stop-color="#43baea" offset="0"/>
   <stop stop-color="#979797" stop-opacity="0" offset="1"/>
  </radialGradient>
  <radialGradient id="a" gradientUnits="userSpaceOnUse" cy="263.36" cx="21.976" gradientTransform="matrix(1.4095 .00097293 -.0011822 1.7127 7.4484 -440.74)" r="15.668">
   <stop stop-color="#969696" offset="0"/>
   <stop stop-color="#969696" stop-opacity="0" offset="1"/>
  </radialGradient>
  <filter id="c" style="color-interpolation-filters:sRGB" height="1.1838" width="1.065" y="-.091901" x="-.032483">
   <feGaussianBlur stdDeviation="0.41565352"/>
  </filter>
  <filter id="d" style="color-interpolation-filters:sRGB" height="1.0909" width="1.0596" y="-.045472" x="-.029794">
   <feGaussianBlur stdDeviation="0.32772389"/>
  </filter>
 </defs>
 <g transform="matrix(3.7796 0 0 3.7796 0 -672.54)">
  <g transform="matrix(2.6458,0,0,2.6458,0,177.94)">
   <rect height="45" width="80" y="0" x="0" fill="#eaeaea"/>
   <path fill="#5d5f62" d="m38.045 6.83a15.668 15.668 0 0 0 -2.5921 0.21962l4.7527 5.6756-3.2933 3.5765 6.2017 5.7666-5.8074 5.0173 4.5635 3.2499-7.8765 7.2791a15.668 15.668 0 0 0 4.0514 0.5519 15.668 15.668 0 0 0 15.669 -15.67 15.668 15.668 0 0 0 -15.669 -15.67zm-5.2467 0.9219a15.668 15.668 0 0 0 -10.421 14.75 15.668 15.668 0 0 0 8.9028 14.111l6.7298-6.1175-4.4411-3.2127 5.9531-5.1971-6.0477-5.4808 3.4959-3.8742z"/>
   <path fill="url(#b)" d="m38.045 6.83a15.668 15.668 0 0 0 -2.5921 0.21962l4.7527 5.6756-3.2933 3.5765 6.2017 5.7666-5.8074 5.0173 4.5635 3.2499-7.8765 7.2791a15.668 15.668 0 0 0 4.0514 0.5519 15.668 15.668 0 0 0 15.669 -15.67 15.668 15.668 0 0 0 -15.669 -15.67zm-5.2467 0.9219a15.668 15.668 0 0 0 -10.421 14.75 15.668 15.668 0 0 0 8.9028 14.111l6.7298-6.1175-4.4411-3.2127 5.9531-5.1971-6.0477-5.4808 3.4959-3.8742z"/>
   <path fill="url(#a)" d="m38.045 6.83a15.668 15.668 0 0 0 -2.5921 0.21962l4.7527 5.6756-3.2933 3.5765 6.2017 5.7666-5.8074 5.0173 4.5635 3.2499-7.8765 7.2791a15.668 15.668 0 0 0 4.0514 0.5519 15.668 15.668 0 0 0 15.669 -15.67 15.668 15.668 0 0 0 -15.669 -15.67zm-5.2467 0.9219a15.668 15.668 0 0 0 -10.421 14.75 15.668 15.668 0 0 0 8.9028 14.111l6.7298-6.1175-4.4411-3.2127 5.9531-5.1971-6.0477-5.4808 3.4959-3.8742z"/>
   <path d="m171.52-134.68c-3.8385 0.0198-7.8942 0.18885-12.193 0.52734l8.2129 36.607c9.4106-6.1852 16.896-9.1803 23.32-10.172l-2.6035-1.8828 21.609-18.865c-10.105-3.7534-22.307-6.2975-38.346-6.2148zm47.373 10.086-16.51 14.264 7.4238 5.2871c15.21 6.1604 29.547 18.453 65.59 6.0703-24.019-1.6448-36.185-15.649-56.504-25.621z" transform="matrix(.26458 0 0 .26458 -16.241 56.28)" filter="url(#c)"/>
   <path fill="#b8b9b9" d="m29.047 20.55c-1.0156 0.005-2.0892 0.05-3.2267 0.13953l2.1735 9.6857c2.4752-1.6268 4.4467-2.4196 6.1397-2.6867l-0.56431-0.40824 5.7645-5.0322c-2.7011-1.0223-5.9676-1.7204-10.287-1.6981zm12.661 2.7342-4.4013 3.8029 1.7792 1.2671c4.0582 1.6171 7.8366 4.9442 17.444 1.6433-6.3037-0.43166-9.5238-4.0793-14.822-6.7133z"/>
   <path opacity=".656" d="m190.76-162.56c-7.9897-0.0749-16.277 1.6578-25.006 6.0879-7.9907 18.786-11.04 38.134 1.7852 59.285 12.367-16.644 26.39-27.301 41.65-33.473l-21.291-19.297 10.775-11.941c-2.6095-0.39534-5.2438-0.63708-7.9141-0.66211zm17.957 2.9746-7.8242 8.498 18.34 17.053c12.476-3.4052 25.668-4.2164 39.379-3.1524-16.799-6.4448-32.889-17.211-49.895-22.398z" transform="matrix(.26458 0 0 .26458 -16.241 56.28)" filter="url(#d)" fill="#00000b"/>
   <path fill="#efefef" d="m34.137 13.08c-2.1139-0.0198-4.3065 0.43862-6.6161 1.6108-2.1142 4.9705-2.9204 10.09 0.47284 15.686 3.2511-4.3755 6.9344-7.186 10.942-8.8238l-5.4612-4.949 2.991-3.3145c-0.76666-0.12752-1.5422-0.20192-2.3285-0.20929zm4.9589 0.8537-2.1833 2.3709 4.6736 4.3455c3.3256-0.92045 6.8448-1.1407 10.503-0.85679-4.3762-1.6789-8.5709-4.4639-12.994-5.8596z"/>
  </g>
 </g>
</svg>
