<?xml version="1.0" encoding="UTF-8" standalone="no"?>
<svg
   xmlns:dc="http://purl.org/dc/elements/1.1/"
   xmlns:cc="http://creativecommons.org/ns#"
   xmlns:rdf="http://www.w3.org/1999/02/22-rdf-syntax-ns#"
   xmlns:svg="http://www.w3.org/2000/svg"
   xmlns="http://www.w3.org/2000/svg"
   xmlns:sodipodi="http://sodipodi.sourceforge.net/DTD/sodipodi-0.dtd"
   xmlns:inkscape="http://www.inkscape.org/namespaces/inkscape"
   viewBox="0 0 22 22"
   id="svg2"
   version="1.1"
   inkscape:version="0.92.2 5c3e80d, 2017-08-06"
   sodipodi:docname="configure.svg">
  <metadata
     id="metadata10">
    <rdf:RDF>
      <cc:Work
         rdf:about="">
        <dc:format>image/svg+xml</dc:format>
        <dc:type
           rdf:resource="http://purl.org/dc/dcmitype/StillImage" />
      </cc:Work>
    </rdf:RDF>
  </metadata>
  <sodipodi:namedview
     pagecolor="#ffffff"
     bordercolor="#666666"
     borderopacity="1"
     objecttolerance="10"
     gridtolerance="10"
     guidetolerance="10"
     inkscape:pageopacity="0"
     inkscape:pageshadow="2"
     inkscape:window-width="1280"
     inkscape:window-height="614"
     id="namedview8"
     showgrid="false"
     inkscape:zoom="14.477272"
     inkscape:cx="7.8575176"
     inkscape:cy="11.164515"
     inkscape:current-layer="svg2"
     inkscape:window-x="0"
     inkscape:window-y="24"
     inkscape:window-maximized="1" />
  <defs
     id="defs3051">
    <style
       type="text/css"
       id="current-color-scheme">
      .ColorScheme-Text {
        color:#4d4d4d
      }
      </style>
  </defs>
  <path
     style="fill:#ececec;fill-opacity:1;stroke:#646464;stroke-opacity:1;opacity:1"
     d="M 6.5996094 4.3007812 C 6.0967894 4.3007812 5.6545378 4.5377654 5.3613281 4.9003906 L 4.3730469 4.9003906 C 3.647902 4.9003906 3.0429687 5.3550406 3.0429688 5.9003906 C 3.0429688 6.4457506 3.647902 6.9003906 4.3730469 6.9003906 L 5.3613281 6.9003906 C 5.6545378 7.2630158 6.0967894 7.5 6.5996094 7.5 C 7.1024294 7.5 7.544681 7.2630158 7.8378906 6.9003906 L 17.669922 6.9003906 C 18.39508 6.9003906 19 6.4457506 19 5.9003906 C 19 5.3550406 18.39508 4.9004006 17.669922 4.9003906 L 7.8378906 4.9003906 C 7.544681 4.5377654 7.1024294 4.3007812 6.5996094 4.3007812 z "
     id="path3207" />
  <path
     style="fill:#ececec;fill-opacity:1;stroke:#646464;stroke-opacity:1;opacity:1"
     d="M 11.021484 9.3007812 C 10.518659 9.3007812 10.076412 9.5377654 9.7832031 9.9003906 L 4.3730469 9.9003906 C 3.647902 9.9003906 3.0429687 10.355031 3.0429688 10.900391 C 3.0429688 11.445741 3.647902 11.900391 4.3730469 11.900391 L 9.7832031 11.900391 C 10.076412 12.263016 10.518659 12.5 11.021484 12.5 C 11.52431 12.5 11.966557 12.263016 12.259766 11.900391 L 17.669922 11.900391 C 18.39508 11.900391 19 11.445741 19 10.900391 C 19 10.355031 18.39508 9.9003906 17.669922 9.9003906 L 12.259766 9.9003906 C 11.966557 9.5377654 11.52431 9.3007812 11.021484 9.3007812 z "
     id="path3203" />
  <path
     style="fill:#ececec;fill-opacity:1;stroke:#646464;stroke-opacity:1;opacity:1"
     d="M 15.400391 14.300781 C 14.897565 14.300781 14.455318 14.537765 14.162109 14.900391 L 4.3730469 14.900391 C 3.647902 14.900391 3.0429687 15.355031 3.0429688 15.900391 C 3.0429688 16.445741 3.647902 16.900391 4.3730469 16.900391 L 14.162109 16.900391 C 14.455318 17.263016 14.897565 17.5 15.400391 17.5 C 15.903216 17.5 16.345463 17.263016 16.638672 16.900391 L 17.669922 16.900391 C 18.39508 16.900391 19 16.445741 19 15.900391 C 19 15.355031 18.39508 14.900391 17.669922 14.900391 L 16.638672 14.900391 C 16.345463 14.537765 15.903216 14.300781 15.400391 14.300781 z "
     id="path3199" />
</svg>
