<?xml version="1.0" encoding="UTF-8"?>
<svg version="1.1" viewBox="0 0 22 22" xmlns="http://www.w3.org/2000/svg" xmlns:xlink="http://www.w3.org/1999/xlink">
 <metadata id="license" xmlns:rdf="http://www.w3.org/1999/02/22-rdf-syntax-ns#" xmlns:dc="http://purl.org/dc/elements/1.1/" xmlns:cc="http://creativecommons.org/ns#">
  <rdf:RDF>
   <cc:Work rdf:about="configure.svg">
    <dc:description>Speed Dial configure button</dc:description>
    <dc:type rdf:resource="http://purl.org/dc/dcmitype/StillImage"/>
    <dc:format>image/svg+xml</dc:format>
    <dc:date>2018-01-10</dc:date>
    <dc:creator>Konstantin Savun</dc:creator>
    <cc:license rdf:resource="https://creativecommons.org/licenses/by-sa/4.0/legalcode"/>
    <cc:attributionName rdf:resource="Konstantin Savun"/>
    <cc:attributionURL rdf:resource="diablopc@linuxforum.tech"/>
   </cc:Work>
  </rdf:RDF>
</metadata>
 <defs>
  <style id="current-color-scheme" type="text/css">.ColorScheme-Text {
        color:#4d4d4d
      }</style>
 </defs>
 <g stroke="#646464" fill="#ececec">
  <path d="m6.5996 4.3008c-0.5028 0-0.9451 0.237-1.2383 0.5996h-0.9883c-0.7251 0-1.33 0.4546-1.33 1s0.6049 1 1.33 1h0.9883c0.2932 0.3626 0.7355 0.5996 1.2383 0.5996s0.9451-0.237 1.2383-0.5996h9.8321c0.725 0 1.33-0.4546 1.33-1s-0.605-1-1.33-1h-9.8321c-0.2932-0.3626-0.7355-0.5996-1.2383-0.5996z"/>
  <path d="m11.021 9.3008c-0.502 0-0.945 0.237-1.2378 0.5996h-5.4102c-0.7251 0-1.33 0.4546-1.33 0.9996 0 0.546 0.6049 1 1.33 1h5.4102c0.2928 0.363 0.7358 0.6 1.2378 0.6 0.503 0 0.946-0.237 1.239-0.6h5.41c0.725 0 1.33-0.454 1.33-1 0-0.545-0.605-0.9996-1.33-0.9996h-5.41c-0.293-0.3626-0.736-0.5996-1.239-0.5996z"/>
  <path d="m15.4 14.301c-0.502 0-0.945 0.237-1.238 0.599h-9.789c-0.7251 0-1.33 0.455-1.33 1 0 0.546 0.6049 1 1.33 1h9.789c0.293 0.363 0.736 0.6 1.238 0.6 0.503 0 0.945-0.237 1.239-0.6h1.031c0.725 0 1.33-0.454 1.33-1 0-0.545-0.605-1-1.33-1h-1.031c-0.294-0.362-0.736-0.599-1.239-0.599z"/>
 </g>
</svg>
