<?xml version="1.0" encoding="UTF-8" standalone="no"?>
<svg
   xmlns:dc="http://purl.org/dc/elements/1.1/"
   xmlns:cc="http://creativecommons.org/ns#"
   xmlns:rdf="http://www.w3.org/1999/02/22-rdf-syntax-ns#"
   xmlns:svg="http://www.w3.org/2000/svg"
   xmlns="http://www.w3.org/2000/svg"
   xmlns:sodipodi="http://sodipodi.sourceforge.net/DTD/sodipodi-0.dtd"
   xmlns:inkscape="http://www.inkscape.org/namespaces/inkscape"
   viewBox="0 0 22 22"
   id="svg2"
   version="1.1"
   inkscape:version="0.92.2 5c3e80d, 2017-08-06"
   sodipodi:docname="configure.svg">
  <metadata
     id="metadata10">
    <rdf:RDF>
      <cc:Work
         rdf:about="">
        <dc:format>image/svg+xml</dc:format>
        <dc:type
           rdf:resource="http://purl.org/dc/dcmitype/StillImage" />
      </cc:Work>
    </rdf:RDF>
  </metadata>
  <sodipodi:namedview
     pagecolor="#ffffff"
     bordercolor="#666666"
     borderopacity="1"
     objecttolerance="10"
     gridtolerance="10"
     guidetolerance="10"
     inkscape:pageopacity="0"
     inkscape:pageshadow="2"
     inkscape:window-width="1280"
     inkscape:window-height="776"
     id="namedview8"
     showgrid="false"
     inkscape:zoom="20.473955"
     inkscape:cx="8.8173537"
     inkscape:cy="11.164515"
     inkscape:current-layer="svg2"
     inkscape:window-x="0"
     inkscape:window-y="24"
     inkscape:window-maximized="1" />
  <defs
     id="defs3051">
    <style
       type="text/css"
       id="current-color-scheme">
      .ColorScheme-Text {
        color:#4d4d4d
      }
      </style>
  </defs>
  <path
     style="fill:#ececec;fill-opacity:1;stroke:none;stroke-opacity:1"
     d="M 6.5996094,4.3007812 C 5.7159594,4.3007812 5.00001,5.0167306 5,5.9003906 5.00001,6.7840506 5.7159594,7.5 6.5996094,7.5 c 0.88365,0 1.5995993,-0.7159494 1.5996094,-1.5996094 -1e-5,-0.88366 -0.7159594,-1.5996094 -1.5996094,-1.5996094 z"
     id="path3207"
     inkscape:connector-curvature="0" />
  <path
     style="fill:#ececec;fill-opacity:1;stroke:none;stroke-width:1.15312064;stroke-opacity:1"
     d="m 4.3734413,4.9003906 c -0.7251449,0 -1.3296872,0.45465 -1.3296872,1 0,0.54536 0.6045423,1 1.3296872,1 H 17.670313 c 0.725158,0 1.329687,-0.45464 1.329687,-1 0,-0.54535 -0.604529,-0.99999 -1.329687,-1 z"
     id="path3205"
     inkscape:connector-curvature="0" />
  <path
     style="fill:#ececec;fill-opacity:1;stroke:none;stroke-opacity:1"
     d="m 11.021877,9.3007816 c -0.88366,0 -1.5996094,0.7159494 -1.5996094,1.5996094 0,0.88366 0.7159494,1.599609 1.5996094,1.599609 0.88366,0 1.59961,-0.715949 1.59961,-1.599609 0,-0.88366 -0.71595,-1.5996094 -1.59961,-1.5996094 z"
     id="path3203"
     inkscape:connector-curvature="0" />
  <path
     style="fill:#ececec;fill-opacity:1;stroke:none;stroke-width:1.15312064;stroke-opacity:1"
     d="m 4.3734413,9.900391 c -0.7251449,0 -1.3296872,0.45464 -1.3296872,1 0,0.54535 0.6045423,1 1.3296872,1 H 17.670313 c 0.725158,0 1.329687,-0.45465 1.329687,-1 0,-0.54536 -0.604529,-1 -1.329687,-1 z"
     id="path3201"
     inkscape:connector-curvature="0" />
  <path
     style="fill:#ececec;fill-opacity:1;stroke:none;stroke-opacity:1"
     d="m 15.400391,14.300781 c -0.88366,0 -1.59961,0.71595 -1.59961,1.59961 0,0.88366 0.71595,1.599609 1.59961,1.599609 C 16.284051,17.5 17,16.784051 17,15.900391 c 0,-0.88366 -0.715949,-1.59961 -1.599609,-1.59961 z"
     id="path3199"
     inkscape:connector-curvature="0" />
  <path
     style="fill:#ececec;fill-opacity:1;stroke:none;stroke-width:1.15312064;stroke-opacity:1"
     d="m 4.3734413,14.900391 c -0.7251449,0 -1.3296872,0.45464 -1.3296872,1 0,0.54535 0.6045423,1 1.3296872,1 H 17.670313 c 0.725158,0 1.329687,-0.45465 1.329687,-1 0,-0.54536 -0.604529,-1 -1.329687,-1 z"
     id="path6"
     inkscape:connector-curvature="0" />
</svg>
