<?xml version="1.0" encoding="UTF-8"?>
<svg version="1.1" viewBox="0 0 22 22" xmlns="http://www.w3.org/2000/svg" xmlns:xlink="http://www.w3.org/1999/xlink">
 <metadata id="license" xmlns:rdf="http://www.w3.org/1999/02/22-rdf-syntax-ns#" xmlns:dc="http://purl.org/dc/elements/1.1/" xmlns:cc="http://creativecommons.org/ns#">
  <rdf:RDF>
   <cc:Work rdf:about="edit_active.svg">
    <dc:description>Speed Dial active edit button</dc:description>
    <dc:type rdf:resource="http://purl.org/dc/dcmitype/StillImage"/>
    <dc:format>image/svg+xml</dc:format>
    <dc:date>2018-01-10</dc:date>
    <dc:creator>Konstantin Savun</dc:creator>
    <cc:license rdf:resource="https://creativecommons.org/licenses/by-sa/4.0/legalcode"/>
    <cc:attributionName rdf:resource="Konstantin Savun"/>
    <cc:attributionURL rdf:resource="diablopc@linuxforum.tech"/>
   </cc:Work>
  </rdf:RDF>
</metadata>
 <defs>
  <style id="current-color-scheme" type="text/css">.ColorScheme-Text {
        color:#f2f2f2;
      }
      .ColorScheme-Highlight {
        color:#3daee9;
      }</style>
 </defs>
 <path d="m7.8613 3.5703c-0.0773 0-0.1447 0.0295-0.2011 0.0859-0.0565 0.0566-0.084 0.122-0.084 0.1993v1.7129c0 0.0772 0.0275 0.1445 0.084 0.2011 0.0564 0.0564 0.1238 0.084 0.2011 0.084h10.844c0.077 0 0.145-0.0275 0.201-0.084 0.057-0.0566 0.084-0.1239 0.084-0.2011v-1.7129c0-0.0773-0.027-0.1428-0.084-0.1993-0.056-0.0563-0.124-0.0859-0.201-0.0859h-10.844zm0 6.2695c-0.0773 0-0.1447 0.0274-0.2011 0.084-0.0565 0.0565-0.084 0.1242-0.084 0.2012v1.711c0 0.077 0.0275 0.145 0.084 0.201 0.0564 0.057 0.1238 0.086 0.2011 0.086h10.844c0.077 0 0.145-0.029 0.201-0.086 0.057-0.056 0.084-0.124 0.084-0.201v-1.711c0-0.077-0.027-0.1448-0.084-0.2012-0.056-0.0565-0.124-0.084-0.201-0.084h-10.844zm0 6.3062c-0.0773 0-0.1447 0.028-0.2011 0.084-0.0565 0.057-0.084 0.124-0.084 0.202v1.713c0 0.077 0.0275 0.142 0.084 0.199 0.0564 0.056 0.1238 0.086 0.2011 0.086h10.844c0.077 0 0.145-0.03 0.201-0.086 0.057-0.057 0.084-0.122 0.084-0.199v-1.713c0-0.078-0.027-0.145-0.084-0.202-0.056-0.056-0.124-0.084-0.201-0.084h-10.844z" class="ColorScheme-Text" fill="currentColor"/>
 <path d="m4.7207 3c-0.4757 0-0.8799 0.1671-1.2129 0.5-0.3329 0.333-0.498 0.7373-0.498 1.2129 0 0.4757 0.165 0.8799 0.498 1.2129 0.333 0.3329 0.7373 0.498 1.2129 0.498s0.8799-0.1651 1.2129-0.498c0.3329-0.333 0.5-0.7372 0.5-1.2129 0-0.4756-0.1671-0.8799-0.5-1.2129-0.3329-0.3329-0.7372-0.5-1.2129-0.5zm0 6.2676c-0.4757 0-0.8799 0.167-1.2129 0.5-0.3329 0.3324-0.498 0.7374-0.498 1.2124 0 0.476 0.165 0.88 0.498 1.213s0.7373 0.5 1.2129 0.5 0.8799-0.167 1.2129-0.5c0.3329-0.333 0.5-0.737 0.5-1.213 0-0.475-0.167-0.88-0.5-1.2124-0.3329-0.3329-0.7372-0.5-1.2129-0.5zm0 6.3084c-0.4757 0-0.88 0.165-1.2129 0.498s-0.498 0.737-0.498 1.213 0.165 0.88 0.498 1.213 0.7373 0.5 1.2129 0.5 0.8799-0.167 1.2129-0.5c0.3329-0.333 0.5-0.737 0.5-1.213s-0.1671-0.88-0.5-1.213-0.7372-0.498-1.2129-0.498z" class="ColorScheme-Highlight" fill="currentColor"/>
</svg>
