<?xml version="1.0" encoding="UTF-8"?>
<svg version="1.1" viewBox="0 0 22 22" xmlns="http://www.w3.org/2000/svg" xmlns:xlink="http://www.w3.org/1999/xlink">
 <metadata id="license" xmlns:rdf="http://www.w3.org/1999/02/22-rdf-syntax-ns#" xmlns:dc="http://purl.org/dc/elements/1.1/" xmlns:cc="http://creativecommons.org/ns#">
  <rdf:RDF>
   <cc:Work rdf:about="reload.svg">
    <dc:description>Speed Dial active reload button</dc:description>
    <dc:type rdf:resource="http://purl.org/dc/dcmitype/StillImage"/>
    <dc:format>image/svg+xml</dc:format>
    <dc:date>2018-01-10</dc:date>
    <dc:creator>Konstantin Savun</dc:creator>
    <cc:license rdf:resource="https://creativecommons.org/licenses/by-sa/4.0/legalcode"/>
    <cc:attributionName rdf:resource="Konstantin Savun"/>
    <cc:attributionURL rdf:resource="diablopc@linuxforum.tech"/>
   </cc:Work>
  </rdf:RDF>
</metadata>
 <defs>
  <style id="current-color-scheme" type="text/css">.ColorScheme-Text {
        color:#4d4d4d
      }</style>
 </defs>
 <path d="m18.365 7.8959c-0.42345-0.98617-0.99292-1.8369-1.7081-2.5522-0.71534-0.71523-1.566-1.2846-2.5522-1.7083-0.98613-0.42372-2.0207-0.63544-3.104-0.63544-1.0208 0-2.0086 0.19254-2.9635 0.57803-0.95481 0.38549-1.8038 0.92889-2.5468 1.6303l-1.3544-1.3439c-0.2084-0.21531-0.44787-0.2639-0.71879-0.14588-0.27783 0.11812-0.41668 0.32309-0.41668 0.61472v4.6668c0 0.18054 0.066 0.33678 0.19792 0.46874 0.13207 0.13194 0.28831 0.19791 0.46884 0.19791h4.6667c0.29176 0 0.49658-0.13885 0.61459-0.41669 0.11801-0.2708 0.0694-0.5104-0.14588-0.71881l-1.4271-1.4375c0.48622-0.45836 1.0418-0.81074 1.6667-1.0574 0.62508-0.2465 1.2778-0.3699 1.9583-0.3699 0.72225 0 1.4115 0.14077 2.0678 0.42193 0.65628 0.28129 1.2238 0.66153 1.703 1.1407 0.4792 0.47908 0.85944 1.0468 1.1407 1.703 0.28115 0.65629 0.42178 1.3454 0.42178 2.0678 0 0.72239-0.14063 1.4114-0.42178 2.0677-0.28128 0.65629-0.66152 1.224-1.1407 1.7032-0.47919 0.47921-1.0469 0.85945-1.703 1.1406-0.65627 0.28129-1.3457 0.42193-2.0678 0.42193-0.82644 0-1.6076-0.18054-2.3438-0.5416-0.73605-0.36107-1.3576-0.87147-1.8645-1.5313-0.0486-0.0694-0.12849-0.11124-0.2396-0.12518-0.1042 0-0.19101 0.0312-0.26044 0.0937l-1.4271 1.4376c-0.0555 0.0557-0.085 0.1267-0.0885 0.21352-0.003 0.0869 0.0192 0.16493 0.0678 0.23436 0.75702 0.91673 1.6736 1.6268 2.75 2.1302 1.0764 0.50337 2.2119 0.75525 3.4063 0.75525 1.0833 0 2.118-0.21186 3.1042-0.63545 0.98614-0.42359 1.8366-0.99319 2.5521-1.7083 0.71521-0.71549 1.2846-1.566 1.7082-2.5522 0.42358-0.98616 0.63531-2.021 0.63531-3.1042 0-1.0835-0.21185-2.1178-0.63543-3.104z" class="ColorScheme-Text" stroke="#eaeaea" fill="#00afff"/>
</svg>
