<?xml version="1.0" encoding="UTF-8"?>
<svg version="1.1" height="256" width="256" xmlns="http://www.w3.org/2000/svg" xmlns:xlink="http://www.w3.org/1999/xlink">
 <metadata id="license" xmlns:rdf="http://www.w3.org/1999/02/22-rdf-syntax-ns#" xmlns:dc="http://purl.org/dc/elements/1.1/" xmlns:cc="http://creativecommons.org/ns#">
  <rdf:RDF>
   <cc:Work rdf:about="qupzilla.svg">
    <dc:description>qupzilla icon</dc:description>
    <dc:type rdf:resource="http://purl.org/dc/dcmitype/StillImage"/>
    <dc:format>image/svg+xml</dc:format>
    <dc:date>2018-01-10</dc:date>
    <dc:creator>Konstantin Savun</dc:creator>
    <cc:license rdf:resource="https://creativecommons.org/licenses/by-sa/4.0/legalcode"/>
    <cc:attributionName rdf:resource="Konstantin Savun"/>
    <cc:attributionURL rdf:resource="diablopc@linuxforum.tech"/>
   </cc:Work>
  </rdf:RDF>
</metadata>
    
 <defs>
  <linearGradient id="a">
   <stop stop-color="#42baea" stop-opacity=".682" offset="0"/>
   <stop stop-color="#42baea" stop-opacity="0" offset="1"/>
  </linearGradient>
  <radialGradient id="b" xlink:href="#a" gradientUnits="userSpaceOnUse" cy="48.769" cx="111.56" gradientTransform="matrix(1.1114 -.01165 .016029 1.5292 -90.789 168.09)" r="30.678"/>
  <radialGradient id="e" xlink:href="#a" gradientUnits="userSpaceOnUse" cy="48.769" cx="111.56" gradientTransform="matrix(.83416 -.01258 .020275 1.3444 -60.063 177.2)" r="30.678"/>
  <radialGradient id="d" xlink:href="#a" gradientUnits="userSpaceOnUse" cy="48.769" cx="111.56" gradientTransform="matrix(.29588 .004193 -.0060614 .42772 1.2707 220.04)" r="30.678"/>
  <filter id="h" style="color-interpolation-filters:sRGB" height="1.1531" width="1.0471" y="-.076546" x="-.023534">
   <feGaussianBlur stdDeviation="0.54905952"/>
  </filter>
  <filter id="g" style="color-interpolation-filters:sRGB" height="1.0925" width="1.0589" y="-.046262" x="-.029464">
   <feGaussianBlur stdDeviation="0.63799783"/>
  </filter>
  <radialGradient id="f" gradientUnits="userSpaceOnUse" cy="48.463" cx="121.38" gradientTransform="matrix(1.0945 .20251 -.055937 .30232 -86.001 223.44)" r="27.996">
   <stop stop-color="#f9fdfe" offset="0"/>
   <stop stop-color="#f9fdfe" stop-opacity="0" offset="1"/>
  </radialGradient>
  <radialGradient id="c" gradientUnits="userSpaceOnUse" cy="241.19" cx="33.78" gradientTransform="matrix(1 0 0 .61683 -.52917 92.416)" r="14.299">
   <stop stop-color="#90d7f3" offset="0"/>
   <stop stop-color="#90d7f3" stop-opacity="0" offset="1"/>
  </radialGradient>
 </defs>
 <g transform="matrix(3.7665 0 0 3.7665 -4.5912 -863.44)">
  <circle cy="263.1" cx="33.415" r="30.678" fill="#205ba0"/>
  <circle cy="263.1" cx="33.415" r="30.678" fill="url(#b)"/>
  <circle cy="263.1" cx="33.415" r="30.678" fill="url(#b)"/>
  <circle cy="263.1" cx="33.415" r="30.678" fill="url(#e)"/>
  <circle cy="263.1" cx="33.415" r="30.678" fill="url(#d)"/>
  <ellipse opacity=".522" rx="14.299" ry="8.8203" cy="241.19" cx="33.251" fill="url(#c)"/>
  <path opacity="0.762" d="m12.573 278.48c29.116-15.988 25.548 9.3595 55.993 0.32262-21.848-5.1627-24.909-19.769-49.116-13.798z" filter="url(#h)" fill="#424242"/>
  <path fill="#7ed1f3" d="m11.794 277.83c29.116-15.988 25.548 9.3595 55.993 0.32263-21.848-5.1627-24.909-19.769-49.116-13.798z"/>
  <path fill="url(#f)" d="m11.794 277.83c29.116-15.988 25.548 9.3595 55.993 0.32263-21.848-5.1627-24.909-19.769-49.116-13.798z"/>
  <path opacity=".894" d="m12.072 278.58c10.706-11.287 22.16-21.931 47.892-20.289-15.759-6.2652-31.938-18.25-48.003-10.016-6.3997 13.964-4.0728 22.692 0.1109 30.306z" filter="url(#g)" fill="#5c5c5c"/>
  <path fill="#fff" d="m11.561 277.93c10.706-11.287 22.16-21.931 47.892-20.289-15.759-6.2652-31.938-18.25-48.003-10.016-6.3997 13.964-4.0728 22.692 0.1109 30.306z"/>
 </g>
</svg>
